<svg width="107" height="151" viewBox="0 0 107 151" fill="none" xmlns="http://www.w3.org/2000/svg">
<path d="M84.9866 61.5697L0.397308 12.7324L21.5373 0.527039L106.125 49.3644L84.9866 61.5697Z" fill="#A8D930"/>
<path d="M0.397308 101.635L84.9866 150.472V61.5697L0.397308 12.7324V101.635Z" fill="#96C522"/>
<path d="M0.397308 90.579L84.9866 139.416V98.2017L0.397308 49.3644V90.579Z" fill="#F16019"/>
<path d="M0.397308 79.375V69.515L22.876 101.314L0.397308 79.375Z" fill="#F57D36"/>
<path d="M0.397308 58.2804L22.876 101.314L6.96533 55.399L0.397308 51.6057V58.2804Z" fill="#F57D36"/>
<path d="M18.2827 61.9337C18.436 62.0217 22.876 101.314 22.876 101.314L26.4893 66.6697L18.2827 61.9337Z" fill="#F57D36"/>
<path d="M33.3773 70.6484L22.876 101.314L40.2587 74.6204L33.3773 70.6484Z" fill="#F57D36"/>
<path d="M46.42 78.1777L22.876 101.314L53.2626 82.127L46.42 78.1777Z" fill="#F57D36"/>
<path d="M60.2307 86.151L22.876 101.314L70.5626 92.1164L60.2307 86.151Z" fill="#F57D36"/>
<path d="M76.652 95.6324L22.876 101.314L84.9866 104.591V100.444L76.652 95.6324Z" fill="#F57D36"/>
<path d="M84.8506 109.13L22.876 101.314L84.8506 119.082V109.13Z" fill="#F57D36"/>
<path d="M84.8506 123.556L22.876 101.314L84.9693 134.554L84.8506 123.556Z" fill="#F57D36"/>
<path d="M36.6706 75.7164C33.4506 75.575 30.4133 77.3164 28.972 80.151C28.6613 80.375 28.3653 80.6137 28.0573 80.8404C27.0266 79.7524 25.752 80.5457 25.252 80.6604L25.1466 79.439C25.4906 79.0817 25.7266 78.5644 25.8173 77.9284C26.0293 76.427 25.5773 74.8924 24.7107 73.6577C25.0467 73.4657 25.3867 73.2817 25.72 73.0844C27.3173 72.1324 30.2907 70.9684 30.052 68.719C29.9947 68.1697 29.4493 67.7484 28.9146 68.0657C27.1053 69.1364 25.0253 69.295 22.9506 69.5404C21.5466 67.799 19.7 66.539 17.948 65.1444C16.844 64.2644 15.3333 62.5644 13.812 62.367C10.2613 61.9057 10.0307 66.5377 7.56799 67.923C6.72799 68.395 6.71597 69.3964 7.8453 69.075C9.90264 68.5377 11.544 67.455 12.8307 65.7857C13.0853 66.1204 13.428 66.2964 13.8933 66.3924C14.316 68.6084 13.8983 70.3857 15.816 71.9457C15.64 72.383 13.936 75.607 13.6733 77.0177C15.7626 77.5564 18.4653 76.7057 19.848 76.1137C20.0693 76.9457 19.932 78.443 21.2133 79.447C21.2133 79.447 20.9546 80.675 20.972 80.927C19.3093 81.3537 17.252 80.991 16.2187 81.6017C14.8747 82.399 10.1587 86.4684 9.75866 87.471C8.58799 90.399 14.1413 90.075 16.3626 89.9577C15.2786 90.7804 12.8453 92.7577 12.8307 92.9484C11.9813 93.7644 11.1093 94.5537 10.176 95.2924L10.1467 95.3377C10.6814 95.6057 11.208 95.8924 11.7267 96.1924C11.8747 96.2657 12.0214 96.3404 12.168 96.4137C17.58 91.2244 28.9253 83.2004 28.9013 83.1244C29.2493 82.8857 29.5947 82.6444 29.9413 82.407L30.024 82.3764C31.4427 82.0244 32.8693 81.575 34.072 80.7484C35.54 79.739 36.3947 78.2537 37.2707 76.7617C37.8454 75.7817 37.148 75.7364 36.6706 75.7164Z" fill="white"/>
<path d="M38.504 90.831C36.3893 87.635 32.932 85.7964 29.636 83.8417C29.4453 83.7284 27.9467 85.2257 26.76 86.151C23.8533 88.4164 20.2853 90.859 17.3947 93.2964C16.5173 94.5724 16.56 96.535 16.2667 97.871C16.1613 98.343 23.3653 103.07 26.6707 104.163C28.7107 93.9977 28.5853 89.3537 28.7213 87.075C30.9093 89.227 34.448 93.6924 34.92 94.3897C35.2973 94.9564 38.656 92.7217 38.504 90.831Z" fill="white"/>
<path d="M50.772 106.168C50.4626 106.066 50.5813 106.112 50.2706 105.624C52.0293 103.979 53.476 102.096 55.2213 100.44C55.2626 97.8511 54.4907 92.4444 54.4387 92.1911C54.26 91.3044 53.7466 91.0991 52.368 90.7417C51.852 90.6097 51.384 90.7804 50.892 90.9577C50.1506 91.2231 48.6466 92.2631 48.4973 91.3871C48.3613 90.5857 48.3106 89.8537 48.3306 89.7004C49.9173 89.3724 51.0986 88.8764 51.912 87.5297C52.0426 87.3137 52.224 86.3844 52.028 86.2511C50.592 85.2751 48.832 83.7911 47.0746 83.4457C46.4733 83.3284 46.1586 83.3751 45.5893 83.5457C44.6533 83.8271 45.3333 83.9391 44.3253 83.8871C43.3706 83.8391 42.9027 83.3817 41.9907 84.1871C40.6773 85.3484 41.1893 87.5337 40.0653 88.6231C39.9373 88.7471 39.98 89.0337 40.1813 89.0617C40.764 89.1391 40.9306 89.1684 41.1426 89.1817C41.2906 89.7351 41.4787 90.2457 41.6373 90.5911C42.2573 91.9297 43.4387 92.7324 44.6893 92.8217C44.4387 93.4764 43.4986 93.8644 42.66 93.8137C42.216 93.7871 41.884 93.6764 41.4733 93.5417C40.92 93.3577 40.5413 93.1844 39.9493 93.2911C38.9667 93.4684 38.3987 94.3217 38.12 95.1564C37.544 96.8871 38.6533 99.4137 39.1853 100.3C40.564 102.599 45.8253 105.088 46.8333 106.015C47.8453 106.944 48.544 108.539 49.8666 109.099C51.68 109.867 53.0427 108.259 53.068 106.611C53.636 106.043 54.3907 104.232 54.8347 102.698C53.4827 103.855 52.0746 104.95 50.772 106.168Z" fill="white"/>
<path d="M60.9733 96.4417L50.4626 106.066L51.616 107.575L64.5053 100.256L67.0933 95.911L60.9733 96.4417Z" fill="white"/>
<path d="M42.7947 104.152C42.7947 104.152 41.4907 105.09 40.116 106.332C38.7413 107.572 37.1893 109.835 37.1 109.968C37.012 110.1 49.7827 117.506 49.7827 117.506C49.7827 117.506 51.3387 110.276 51.2507 109.524C50.2747 109.658 49.4294 109.879 48.5867 108.859C47.744 107.839 46.904 106.876 46.592 106.596C45.452 105.584 42.7947 104.152 42.7947 104.152Z" fill="white"/>
<path d="M0.397308 90.579L84.9866 139.416V137.174L0.397308 88.3364V90.579Z" fill="white"/>
<path d="M106.125 138.268L84.9866 150.472V61.5697L106.125 49.3644V138.268Z" fill="#89AE27"/>
<path d="M106.125 127.31L84.9866 139.416V98.2017L106.125 86.095V127.31Z" fill="#DD501E"/>
<path d="M106.125 127.31L84.9866 139.416V137.231L106.125 125.123V127.31Z" fill="#D8B2B1"/>
<path d="M0.397308 51.6057L84.9866 100.444V98.2017L0.397308 49.3644V51.6057Z" fill="white"/>
<path d="M106.125 88.3364L84.9866 100.444V98.2577L106.125 86.151V88.3364Z" fill="#D8B2B1"/>
<path d="M104.363 55.1444L88.2213 64.3897V86.151L104.363 76.9057V55.1444Z" fill="#D8B2B1"/>
<path d="M104.363 80.1857L88.2213 89.4297V92.1164L104.363 82.8724V80.1857Z" fill="#D8B2B1"/>
<path d="M104.363 130.739L88.2213 139.983V144.038L104.363 134.794V130.739Z" fill="#D8B2B1"/>
<path d="M68.332 57.083L17.0507 27.371C14.9893 26.1804 13.32 27.4444 13.32 30.191V44.3124C13.32 47.0604 14.9893 50.2524 17.0507 51.4417L68.332 81.155C70.3933 82.3444 72.064 81.0817 72.064 78.3337V64.2124C72.064 61.4657 70.3933 58.2724 68.332 57.083Z" fill="#F16019"/>
<path d="M15.572 27.6031C15.36 27.6031 15.1493 27.6484 14.9493 27.7631C14.3546 28.1057 14 29.0151 14 30.1911V44.3124C14 46.7964 15.5533 49.7911 17.3907 50.8524L68.6733 80.5657C69.1547 80.8417 69.8493 81.1004 70.4333 80.7617C71.0294 80.4191 71.3826 79.5111 71.3826 78.3337V64.2124C71.3826 61.7297 69.8293 58.7337 67.992 57.6724H67.991L16.711 27.9604C16.3937 27.7777 15.984 27.6031 15.572 27.6031ZM69.8173 82.2844C69.2347 82.2844 68.6147 82.1031 67.992 81.7444L16.7107 52.0311C14.428 50.7137 12.6387 47.3231 12.6387 44.3124V30.1911C12.6387 28.4964 13.232 27.1817 14.268 26.5844C15.1653 26.0671 16.2747 26.1364 17.3907 26.7804L68.6733 56.4937C70.9573 57.8124 72.7453 61.2031 72.7453 64.2124V78.3337C72.7453 80.0284 72.152 81.3431 71.1146 81.9417C70.7173 82.1697 70.2787 82.2844 69.8173 82.2844Z" fill="white"/>
<path d="M69.2546 91.1084C69.3573 95.0897 71.8773 99.299 74.8826 100.508C77.888 101.718 80.2413 99.4684 80.14 95.487C80.036 91.5044 77.516 87.2964 74.5107 86.087C71.5054 84.8777 69.152 87.1257 69.2546 91.1084Z" fill="#E72530"/>
<path d="M70.7466 91.7084C70.8226 94.599 72.6506 97.6537 74.8319 98.531C77.0133 99.4084 78.7213 97.7777 78.648 94.887C78.572 91.9964 76.744 88.9417 74.5613 88.0644C72.38 87.187 70.672 88.8177 70.7466 91.7084Z" fill="white"/>
<path d="M68.9626 123.155L80.432 129.775V106.539L68.9626 99.9177V123.155Z" fill="#E72530"/>
</svg>
