<svg width="131" height="104" viewBox="0 0 131 104" fill="none" xmlns="http://www.w3.org/2000/svg">
<path d="M60.6627 74.9787L0.437317 40.208L69.9786 0.0559998L130.204 34.828L60.6627 74.9787Z" fill="#F57D36"/>
<path d="M60.912 72.9613L3.92932 40.0613L69.728 2.07333L126.711 34.9733L60.912 72.9613Z" fill="white"/>
<path d="M61.18 70.8027L7.66931 39.9067L69.4586 4.23203L122.972 35.128L61.18 70.8027Z" fill="#F5B723"/>
<path d="M87.74 52.212C74.328 59.956 54.036 60.7973 42.42 54.0907C30.8026 47.384 32.26 35.668 45.6746 27.924C59.0866 20.18 79.3786 19.3387 90.9946 26.0454C102.612 32.752 101.155 44.4667 87.74 52.212Z" fill="white"/>
<path d="M87.232 31.5987C87.232 31.5987 83.9186 32.3693 81.876 32.04C78.1013 31.4307 77.4626 33.4253 77.212 34.22C76.9613 35.0133 75.5773 36.492 74.3093 36.544C73.04 36.5973 67.4107 38.216 67.124 40.012C66.8373 41.8107 66.2707 42.7387 64.6027 42.4827C62.936 42.2267 63.676 40.848 63.676 40.848C63.676 40.848 60.928 42.2293 62.012 43.1C63.0973 43.9693 63.6813 44.0627 63.6813 44.0627C63.6813 44.0627 60.1013 44.2027 60.0067 45.4827C59.9094 46.7627 60.508 47.028 60.508 47.028C60.508 47.028 61.1093 46.228 62.276 46.0067C63.4427 45.7867 65.5533 45.544 65.5533 45.544C65.5533 45.544 67.3013 49.3813 68.2586 50.2467C69.216 51.1133 86.976 48.884 86.976 48.884C86.976 48.884 93.3213 48.62 94.564 47.7667C95.8053 46.9133 94.3733 45.036 95.7626 44.22C97.748 43.052 99.248 42.704 100.087 41.9267C102.228 39.9427 101.408 38.0467 101.408 38.0467L87.232 31.5987Z" fill="#583330"/>
<path d="M85.7947 38.228C85.7947 38.228 83.7173 39.856 82.8373 39.9373C81.956 40.0173 81.0133 38.884 81.0133 38.884C81.0133 38.884 74.5346 41.344 73.6826 42.3453C72.832 43.3467 73.9146 46.5627 78.488 46.848C83.06 47.132 88.2173 43.5627 88.2173 43.5627C88.2173 43.5627 86.7867 42.5653 86.7947 42.2213C86.8174 41.4107 90.1266 39.788 90.1266 39.788L85.7947 38.228Z" fill="#F68C83"/>
<path d="M97.1493 38.3467C95.036 39.568 92.72 39.9413 90.4373 39.9667C88.9053 39.984 87.232 40.004 86.2293 39.4253C85.1893 38.8253 85.168 37.8867 85.236 36.964C85.332 35.6693 86.0333 34.3106 88.096 33.12C91.6267 31.0826 96.516 30.5987 99.016 32.0427C101.516 33.4867 100.68 36.3093 97.1493 38.3467Z" fill="#FABAAC"/>
<path d="M66.6893 19.5573C66.6893 19.5573 66.2173 19.8547 66.78 18C67.3414 16.1453 67.3294 13.6507 66.276 14.0974C64.708 14.7627 65.0067 16.3467 65.0067 16.3467C65.0067 16.3467 62.9894 13.5334 62.5547 12.4587C62.12 11.3827 59.6854 11.156 58.5707 12.5147C57.4547 13.872 57.4947 16.604 59.4854 18.1067C61.476 19.6093 63.2213 21.5587 63.2213 21.5587L66.6893 19.5573Z" fill="#FABAAC"/>
<path d="M81.7227 39.5307C81.7227 39.5307 81.244 37.5613 78.3813 35.2027C75.04 32.448 73.544 30.808 70.72 27.5987C67.74 24.2133 68.4013 18.0573 68.4013 18.0573C68.4013 18.0573 64.2666 18.2533 60.0533 21.2467C55.7973 24.2693 54.1026 25.7027 52.932 27.5C52.932 27.5 70.888 38.496 70.0467 41.1467C69.4667 42.9707 62.212 43.6653 63.3973 47.44C59.1613 50.9613 41.836 59.6333 41.836 59.6333L61.18 70.8027L90.784 53.712C90.784 53.712 93.644 49.188 92.612 47.3387C91.58 45.4894 87.5853 43.1787 87.5853 43.1787C87.5853 43.1787 79.764 47.4373 76.1973 45.0573C72.632 42.6787 81.7227 39.5307 81.7227 39.5307Z" fill="#559DDB"/>
<path d="M82.1866 34.104C82.1866 34.104 85.6186 32.3947 89.0559 33.6747C92.4413 34.936 97.5119 34.1 97.5119 34.1C97.5119 34.1 95.5133 35.9893 95.6679 37.492C95.8213 38.996 92.2666 41.1653 92.2666 41.1653C92.2666 41.1653 96.2199 41.7347 100.556 38.6773C105.037 35.52 103.215 34.8107 102.697 33.6187C104.475 32.2573 103.236 30.5853 101.377 30.028C96.9853 28.7133 96.3493 29.784 92.4067 29.864C89.356 29.9267 81.308 30.5133 82.1866 34.104Z" fill="#583330"/>
<path d="M93.808 29.8227C93.7893 29.6307 92.8254 29.1454 92.4067 29.864C91.9907 30.5827 92.716 32.1733 95.9213 34.8786C98.168 36.7733 100.432 37.56 101.408 38.0466C102.385 38.532 103.297 37.812 102.269 37.3053C100.992 36.676 99.1053 35.4813 97.512 34.1C95.9266 32.724 93.9706 31.472 93.808 29.8227Z" fill="white"/>
<path d="M88.356 47.4814C88.356 47.4814 83.3493 50.2627 80.9106 51.78C78.3453 53.376 75.9826 53.8853 74.1986 53.676C71.3453 53.3427 68.656 52.184 69.9347 47.9173C67.3773 48.384 63.3973 47.44 63.3973 47.44L61.9226 48.564C61.9226 48.564 65.272 49.5053 65.9893 50.1947C66.7066 50.8827 69.6813 54.1893 70.9653 54.932C72.2493 55.672 74.6667 56.0067 74.6667 56.0067C74.6667 56.0067 67.9973 61.6987 65.488 63.1933C62.172 65.168 56.7306 68.232 56.8333 68.292L59.1293 69.6187C59.1293 69.6187 70.4987 62.5187 74.8187 59.1707C79.1387 55.8227 80.916 55.068 83.628 52.5253C86.1453 50.1653 88.356 47.4814 88.356 47.4814Z" fill="#4D79C6"/>
<path d="M68.3427 19.2387C68.3427 19.2387 63.136 21.2 60.28 23.6147C57.4227 26.0294 54.876 28.7187 54.876 28.7187L55.808 29.256C55.808 29.256 59.2866 25.5147 61.6346 23.7493C63.9853 21.9853 68.344 19.9693 68.344 19.9693L68.3427 19.2387Z" fill="white"/>
<path d="M81.388 38.7227C81.388 38.7227 73.6853 41.4267 73.8546 43.8787C74.0226 46.332 76.9106 47.4693 80.3986 46.832C83.8866 46.196 88.704 43.876 88.704 43.876L87.5853 43.1787C87.5853 43.1787 83.6773 44.8374 81.9667 45.2654C80.2573 45.6907 78.2466 45.8053 77.2333 45.064C76.2213 44.324 76.1733 42.744 78.0733 41.5453C79.9747 40.3453 81.9334 39.672 81.9334 39.672L81.388 38.7227Z" fill="white"/>
<path d="M79.192 13.516C79.192 13.516 76.9093 14.5693 76.1293 14.888C74.4413 15.5773 72.4773 14.304 72.4773 14.304C72.4773 14.304 73.6507 15.316 73.508 15.8734C73.364 16.432 72.04 17.4867 72.04 17.4867C72.04 17.4867 74.2026 16.396 75.136 16.5707C76.0693 16.744 77.6027 17.232 77.6027 17.232C77.6027 17.232 76.028 16.0547 76.5587 15.5387C77.532 14.588 79.192 13.516 79.192 13.516Z" fill="white"/>
<path d="M81.8787 24.4027C81.8787 24.4027 79.5973 25.456 78.8173 25.776C77.1267 26.4653 75.1653 25.1907 75.1653 25.1907C75.1653 25.1907 76.3386 26.2027 76.1946 26.7614C76.052 27.3187 74.728 28.3734 74.728 28.3734C74.728 28.3734 76.8893 27.284 77.824 27.4573C78.7573 27.6307 80.2893 28.1187 80.2893 28.1187C80.2893 28.1187 78.7147 26.9427 79.244 26.4254C80.2187 25.4747 81.8787 24.4027 81.8787 24.4027Z" fill="#F5B723"/>
<path d="M113.281 33.9587C113.281 33.9587 111 35.012 110.219 35.332C108.529 36.02 106.567 34.7467 106.567 34.7467C106.567 34.7467 107.739 35.76 107.597 36.3174C107.455 36.8747 106.129 37.9307 106.129 37.9307C106.129 37.9307 108.291 36.84 109.227 37.0133C110.16 37.1867 111.692 37.6747 111.692 37.6747C111.692 37.6747 110.117 36.4987 110.647 35.9814C111.621 35.0307 113.281 33.9587 113.281 33.9587Z" fill="white"/>
<path d="M54.9973 46.476C54.9973 46.476 52.7147 47.5294 51.9347 47.848C50.2453 48.5374 48.2827 47.264 48.2827 47.264C48.2827 47.264 49.4546 48.276 49.312 48.8333C49.1693 49.3907 47.844 50.4467 47.844 50.4467C47.844 50.4467 50.008 49.3573 50.9413 49.5307C51.8746 49.704 53.4066 50.192 53.4066 50.192C53.4066 50.192 51.8333 49.016 52.3626 48.4987C53.3373 47.548 54.9973 46.476 54.9973 46.476Z" fill="#F5B723"/>
<path d="M54.0427 19.532C54.0427 19.532 51.7613 20.5854 50.9813 20.904C49.2907 21.5934 47.3293 20.32 47.3293 20.32C47.3293 20.32 48.5026 21.332 48.3586 21.8893C48.216 22.448 46.892 23.5027 46.892 23.5027C46.892 23.5027 49.0533 22.4133 49.988 22.5867C50.9213 22.76 52.4547 23.2493 52.4547 23.2493C52.4547 23.2493 50.8786 22.072 51.408 21.5547C52.3826 20.604 54.0427 19.532 54.0427 19.532Z" fill="white"/>
<path d="M85.3613 16.312C85.3613 16.312 84.012 16.936 83.5507 17.124C82.5533 17.5307 81.392 16.7787 81.392 16.7787C81.392 16.7787 82.0853 17.3773 82.0013 17.7067C81.916 18.036 81.1333 18.66 81.1333 18.66C81.1333 18.66 82.4106 18.016 82.9626 18.1187C83.516 18.2214 84.4213 18.5093 84.4213 18.5093C84.4213 18.5093 83.4907 17.8147 83.804 17.508C84.38 16.9467 85.3613 16.312 85.3613 16.312Z" fill="white"/>
<path d="M43.9507 23.0747C43.9507 23.0747 42.6 23.696 42.1386 23.8853C41.14 24.2933 39.98 23.54 39.98 23.54C39.98 23.54 40.6733 24.1373 40.5893 24.468C40.5053 24.7973 39.7213 25.4213 39.7213 25.4213C39.7213 25.4213 41 24.7773 41.552 24.88C42.104 24.9827 43.0107 25.2707 43.0107 25.2707C43.0107 25.2707 42.0786 24.576 42.3933 24.2693C42.968 23.708 43.9507 23.0747 43.9507 23.0747Z" fill="white"/>
<path d="M106.637 41.6907C106.637 41.6907 105.288 42.3133 104.828 42.5013C103.829 42.9093 102.669 42.1573 102.669 42.1573C102.669 42.1573 103.361 42.756 103.277 43.0853C103.192 43.4147 102.409 44.0387 102.409 44.0387C102.409 44.0387 103.688 43.3933 104.24 43.4973C104.792 43.6 105.699 43.888 105.699 43.888C105.699 43.888 104.768 43.192 105.08 42.8867C105.657 42.3253 106.637 41.6907 106.637 41.6907Z" fill="white"/>
<path d="M130.204 63.1347L60.7906 103.188V74.8813L130.204 34.828V63.1347Z" fill="#DD501E"/>
<path d="M80.356 68.1507L65.2893 76.844V95.56L80.356 86.868V68.1507Z" fill="white"/>
<path d="M93.1107 60.7907L87.9667 63.7587V82.476L93.1107 79.5067V60.7907Z" fill="white"/>
<path d="M100.516 56.5173L95.7853 59.248V77.964L100.516 75.2333V56.5173Z" fill="white"/>
<path d="M126.972 41.6907L122.24 44.4213V63.1373L126.972 60.4067V41.6907Z" fill="white"/>
<path d="M103.397 54.856V73.572L111.184 69.0787V50.3613L103.397 54.856Z" fill="white"/>
<path d="M0.437317 68.5133L60.7906 103.188V74.8813L0.437317 40.208V68.5133Z" fill="#F16019"/>
</svg>
