<svg width="77" height="77" viewBox="0 0 77 77" fill="none" xmlns="http://www.w3.org/2000/svg">
<path d="M45.6461 55.8756L16.5538 63.6698L28.6718 18.4442L57.765 10.649L45.6461 55.8756Z" fill="#F57D36"/>
<path d="M46.9088 57.1383L17.8175 64.9335L29.9345 19.7069L59.0277 11.9118L46.9088 57.1383Z" fill="#F5B723"/>
<path d="M18.8175 65.9335L16.5538 63.6698L45.6461 55.8756L47.9088 58.1383L18.8175 65.9335Z" fill="#F57D36"/>
<path d="M57.765 10.649L60.0277 12.9118L47.9089 58.1383L45.6461 55.8756L57.765 10.649Z" fill="#F57D36"/>
<path d="M39.566 22.2876C39.3002 24.1942 38.6948 26.7344 37.7896 29.9026C36.8731 33.0821 35.5889 37.1725 33.9595 42.1625L33.5353 43.3903L33.2296 44.4539L34.1292 44.0295L35.5098 43.2828C36.4148 42.8301 37.2579 42.4059 38.05 42.0212C38.8421 41.6365 39.6116 41.2972 40.3809 40.9802C41.1502 40.6632 41.9085 40.3805 42.6836 40.1033C43.4587 39.8374 44.2847 39.5545 45.1729 39.2547L46.1178 39.0455L47.0174 39.0397L47.6455 39.4074L47.7191 40.2956L46.791 42.0493L45.388 43.3845C44.6525 43.9163 43.9059 44.4143 43.1421 44.8726C42.3784 45.3197 41.609 45.6818 40.8451 45.9475C38.8989 46.5925 37.0716 47.311 35.3913 48.086C33.7111 48.8611 31.8723 49.7946 29.8865 50.8865C29.1625 51.294 28.4213 51.6279 27.6744 51.8767L25.4453 52.4537L24.5628 52.0575L24.4723 50.8016L25.0664 49.0535L25.7058 47.3957C26.6619 44.8554 27.5388 42.3379 28.3308 39.8599C29.1342 37.3819 29.8866 34.8869 30.6221 32.3637C30.9162 31.2888 31.1029 30.5816 31.1991 30.2365L31.4593 29.3992C31.9516 27.7415 32.5627 26.361 33.2699 25.2578C33.9885 24.1547 34.9275 23.1477 36.1155 22.2424L36.9134 21.6711L37.779 21.1449C38.5768 20.6755 39.0974 20.5623 39.3462 20.7658L39.566 22.2876Z" fill="#F3F3F3"/>
</svg>
